<svg xmlns="http://www.w3.org/2000/svg" xmlns:xlink="http://www.w3.org/1999/xlink" version="1.1" x="0px" y="0px" viewBox="0 0 48 60" style="enable-background:new 0 0 48 48;" xml:space="preserve"><path d="M23.5,28.5h1v-1h2v-3v-1h-2v-2h2v-1h-2v-1h-1v1h-2v3v1h2v2h-2v1h2V28.5z M24.5,24.5h1v2h-1V24.5z M22.5,23.5v-2h1v2H22.5z"/><path d="M24,32c4.41,0,8-3.59,8-8s-3.59-8-8-8s-8,3.59-8,8S19.59,32,24,32z M24,18c3.31,0,6,2.69,6,6s-2.69,6-6,6s-6-2.69-6-6  S20.69,18,24,18z"/><path d="M10,13H3v7v8v7h7h28h7v-7v-8v-7h-7H10z M5,15h2.87C7.51,16.4,6.4,17.51,5,17.87V15z M5,33v-2.87  C6.4,30.49,7.51,31.6,7.87,33H5z M43,33h-2.87c0.36-1.4,1.47-2.51,2.87-2.87V33z M43,15v2.87c-1.4-0.36-2.51-1.47-2.87-2.87H43z   M43,19.91v8.18c-2.51,0.42-4.49,2.4-4.91,4.91H9.91c-0.42-2.51-2.4-4.49-4.91-4.91v-8.18c2.51-0.42,4.49-2.4,4.91-4.91h28.18  C38.51,17.51,40.49,19.49,43,19.91z"/><text x="0" y="63" fill="#000000" font-size="5px" font-weight="bold" font-family="'Helvetica Neue', Helvetica, Arial-Unicode, Arial, Sans-serif">Created by barurezeki</text><text x="0" y="68" fill="#000000" font-size="5px" font-weight="bold" font-family="'Helvetica Neue', Helvetica, Arial-Unicode, Arial, Sans-serif">from the Noun Project</text></svg>